<mxfile host="app.diagrams.net" modified="2023-08-20T14:00:07.594Z" agent="Mozilla/5.0 (Windows NT 10.0; Win64; x64) AppleWebKit/537.36 (KHTML, like Gecko) Chrome/116.0.0.0 Safari/537.36" etag="XP-V1YlG9Ad104L_aKRP" version="21.6.8" type="google" pages="2">
  <diagram name="ESP-32" id="DB_CX7-fGHB4j4GHfsu-">
    <mxGraphModel grid="1" page="1" gridSize="10" guides="1" tooltips="1" connect="1" arrows="1" fold="1" pageScale="1" pageWidth="1169" pageHeight="827" background="#000000" math="0" shadow="0">
      <root>
        <mxCell id="0" />
        <mxCell id="1" parent="0" />
        <mxCell id="sxVLVylFTuOL7KyfMQJN-5" value="" style="edgeStyle=orthogonalEdgeStyle;rounded=0;orthogonalLoop=1;jettySize=auto;html=1;labelBackgroundColor=none;strokeColor=#DDA15E;fontColor=default;" edge="1" parent="1" source="VZkVSs7Zi02EqtTKsUPn-2" target="VZkVSs7Zi02EqtTKsUPn-4">
          <mxGeometry relative="1" as="geometry" />
        </mxCell>
        <mxCell id="sxVLVylFTuOL7KyfMQJN-6" style="edgeStyle=orthogonalEdgeStyle;rounded=0;orthogonalLoop=1;jettySize=auto;html=1;entryX=0.5;entryY=0;entryDx=0;entryDy=0;strokeColor=#DDA15E;labelBackgroundColor=none;fontColor=default;" edge="1" parent="1" source="VZkVSs7Zi02EqtTKsUPn-2" target="VZkVSs7Zi02EqtTKsUPn-3">
          <mxGeometry relative="1" as="geometry" />
        </mxCell>
        <mxCell id="VZkVSs7Zi02EqtTKsUPn-2" value="Start" style="strokeWidth=2;html=1;shape=mxgraph.flowchart.terminator;whiteSpace=wrap;labelBackgroundColor=none;fillColor=#BC6C25;strokeColor=#DDA15E;fontColor=#FEFAE0;" vertex="1" parent="1">
          <mxGeometry x="100" y="30" width="100" height="40" as="geometry" />
        </mxCell>
        <mxCell id="sxVLVylFTuOL7KyfMQJN-7" value="" style="edgeStyle=orthogonalEdgeStyle;rounded=0;orthogonalLoop=1;jettySize=auto;html=1;strokeColor=#DDA15E;labelBackgroundColor=none;fontColor=default;" edge="1" parent="1" source="VZkVSs7Zi02EqtTKsUPn-3" target="VZkVSs7Zi02EqtTKsUPn-4">
          <mxGeometry relative="1" as="geometry" />
        </mxCell>
        <mxCell id="VZkVSs7Zi02EqtTKsUPn-3" value="Connect WIFI" style="rounded=1;whiteSpace=wrap;html=1;absoluteArcSize=1;arcSize=14;strokeWidth=2;labelBackgroundColor=none;fillColor=#BC6C25;strokeColor=#DDA15E;fontColor=#FEFAE0;" vertex="1" parent="1">
          <mxGeometry x="100" y="90" width="100" height="50" as="geometry" />
        </mxCell>
        <mxCell id="sxVLVylFTuOL7KyfMQJN-9" style="edgeStyle=orthogonalEdgeStyle;rounded=0;orthogonalLoop=1;jettySize=auto;html=1;exitX=0.5;exitY=1;exitDx=0;exitDy=0;exitPerimeter=0;entryX=0.5;entryY=0;entryDx=0;entryDy=0;strokeColor=#DDA15E;labelBackgroundColor=none;fontColor=default;" edge="1" parent="1" source="VZkVSs7Zi02EqtTKsUPn-4" target="VZkVSs7Zi02EqtTKsUPn-5">
          <mxGeometry relative="1" as="geometry" />
        </mxCell>
        <mxCell id="sxVLVylFTuOL7KyfMQJN-10" style="edgeStyle=orthogonalEdgeStyle;rounded=0;orthogonalLoop=1;jettySize=auto;html=1;exitX=0;exitY=0.5;exitDx=0;exitDy=0;exitPerimeter=0;entryX=0;entryY=0.5;entryDx=0;entryDy=0;strokeColor=#DDA15E;labelBackgroundColor=none;fontColor=default;" edge="1" parent="1" source="VZkVSs7Zi02EqtTKsUPn-4" target="VZkVSs7Zi02EqtTKsUPn-3">
          <mxGeometry relative="1" as="geometry" />
        </mxCell>
        <mxCell id="VZkVSs7Zi02EqtTKsUPn-4" value="WIFI &lt;br&gt;Connected" style="strokeWidth=2;html=1;shape=mxgraph.flowchart.decision;whiteSpace=wrap;labelBackgroundColor=none;fillColor=#BC6C25;strokeColor=#DDA15E;fontColor=#FEFAE0;" vertex="1" parent="1">
          <mxGeometry x="100" y="160" width="100" height="100" as="geometry" />
        </mxCell>
        <mxCell id="sxVLVylFTuOL7KyfMQJN-11" style="edgeStyle=orthogonalEdgeStyle;rounded=0;orthogonalLoop=1;jettySize=auto;html=1;exitX=0.5;exitY=1;exitDx=0;exitDy=0;entryX=0.5;entryY=0;entryDx=0;entryDy=0;entryPerimeter=0;strokeColor=#DDA15E;labelBackgroundColor=none;fontColor=default;" edge="1" parent="1" source="VZkVSs7Zi02EqtTKsUPn-5" target="VZkVSs7Zi02EqtTKsUPn-6">
          <mxGeometry relative="1" as="geometry" />
        </mxCell>
        <mxCell id="VZkVSs7Zi02EqtTKsUPn-5" value="Connect MQTT Broker" style="rounded=1;whiteSpace=wrap;html=1;absoluteArcSize=1;arcSize=14;strokeWidth=2;labelBackgroundColor=none;fillColor=#BC6C25;strokeColor=#DDA15E;fontColor=#FEFAE0;" vertex="1" parent="1">
          <mxGeometry x="100" y="280" width="100" height="50" as="geometry" />
        </mxCell>
        <mxCell id="sxVLVylFTuOL7KyfMQJN-12" style="edgeStyle=orthogonalEdgeStyle;rounded=0;orthogonalLoop=1;jettySize=auto;html=1;exitX=0;exitY=0.5;exitDx=0;exitDy=0;exitPerimeter=0;entryX=0;entryY=0.5;entryDx=0;entryDy=0;strokeColor=#DDA15E;labelBackgroundColor=none;fontColor=default;" edge="1" parent="1" source="VZkVSs7Zi02EqtTKsUPn-6" target="VZkVSs7Zi02EqtTKsUPn-5">
          <mxGeometry relative="1" as="geometry" />
        </mxCell>
        <mxCell id="sxVLVylFTuOL7KyfMQJN-13" style="edgeStyle=orthogonalEdgeStyle;rounded=0;orthogonalLoop=1;jettySize=auto;html=1;exitX=0.5;exitY=1;exitDx=0;exitDy=0;exitPerimeter=0;entryX=0.5;entryY=0;entryDx=0;entryDy=0;strokeColor=#DDA15E;labelBackgroundColor=none;fontColor=default;" edge="1" parent="1" source="VZkVSs7Zi02EqtTKsUPn-6" target="VZkVSs7Zi02EqtTKsUPn-7">
          <mxGeometry relative="1" as="geometry" />
        </mxCell>
        <mxCell id="VZkVSs7Zi02EqtTKsUPn-6" value="MQTT&lt;br&gt;Broker&lt;br&gt;Connected" style="strokeWidth=2;html=1;shape=mxgraph.flowchart.decision;whiteSpace=wrap;labelBackgroundColor=none;fillColor=#BC6C25;strokeColor=#DDA15E;fontColor=#FEFAE0;" vertex="1" parent="1">
          <mxGeometry x="100" y="350" width="100" height="100" as="geometry" />
        </mxCell>
        <mxCell id="sxVLVylFTuOL7KyfMQJN-14" style="edgeStyle=orthogonalEdgeStyle;rounded=0;orthogonalLoop=1;jettySize=auto;html=1;exitX=0.5;exitY=1;exitDx=0;exitDy=0;entryX=0.5;entryY=0;entryDx=0;entryDy=0;entryPerimeter=0;strokeColor=#DDA15E;labelBackgroundColor=none;fontColor=default;" edge="1" parent="1" source="VZkVSs7Zi02EqtTKsUPn-7" target="VZkVSs7Zi02EqtTKsUPn-8">
          <mxGeometry relative="1" as="geometry" />
        </mxCell>
        <mxCell id="VZkVSs7Zi02EqtTKsUPn-7" value="Write Distance Sensor Ultrasonic to valSensor&amp;nbsp;" style="rounded=1;whiteSpace=wrap;html=1;absoluteArcSize=1;arcSize=14;strokeWidth=2;labelBackgroundColor=none;fillColor=#BC6C25;strokeColor=#DDA15E;fontColor=#FEFAE0;" vertex="1" parent="1">
          <mxGeometry x="100" y="470" width="100" height="50" as="geometry" />
        </mxCell>
        <mxCell id="sxVLVylFTuOL7KyfMQJN-15" style="edgeStyle=orthogonalEdgeStyle;rounded=0;orthogonalLoop=1;jettySize=auto;html=1;exitX=1;exitY=0.5;exitDx=0;exitDy=0;exitPerimeter=0;strokeColor=#DDA15E;labelBackgroundColor=none;fontColor=default;" edge="1" parent="1" source="VZkVSs7Zi02EqtTKsUPn-8" target="VZkVSs7Zi02EqtTKsUPn-11">
          <mxGeometry relative="1" as="geometry" />
        </mxCell>
        <mxCell id="sxVLVylFTuOL7KyfMQJN-17" style="edgeStyle=orthogonalEdgeStyle;rounded=0;orthogonalLoop=1;jettySize=auto;html=1;exitX=0.5;exitY=1;exitDx=0;exitDy=0;exitPerimeter=0;entryX=0.5;entryY=0;entryDx=0;entryDy=0;entryPerimeter=0;strokeColor=#DDA15E;labelBackgroundColor=none;fontColor=default;" edge="1" parent="1" source="VZkVSs7Zi02EqtTKsUPn-8" target="VZkVSs7Zi02EqtTKsUPn-9">
          <mxGeometry relative="1" as="geometry" />
        </mxCell>
        <mxCell id="VZkVSs7Zi02EqtTKsUPn-8" value="valSensor &lt;br&gt;&amp;gt; 250" style="strokeWidth=2;html=1;shape=mxgraph.flowchart.decision;whiteSpace=wrap;labelBackgroundColor=none;fillColor=#BC6C25;strokeColor=#DDA15E;fontColor=#FEFAE0;" vertex="1" parent="1">
          <mxGeometry x="325" y="60" width="100" height="100" as="geometry" />
        </mxCell>
        <mxCell id="sxVLVylFTuOL7KyfMQJN-18" style="edgeStyle=orthogonalEdgeStyle;rounded=0;orthogonalLoop=1;jettySize=auto;html=1;exitX=0.5;exitY=1;exitDx=0;exitDy=0;exitPerimeter=0;entryX=0.5;entryY=0;entryDx=0;entryDy=0;strokeColor=#DDA15E;labelBackgroundColor=none;fontColor=default;" edge="1" parent="1" source="VZkVSs7Zi02EqtTKsUPn-9" target="VZkVSs7Zi02EqtTKsUPn-13">
          <mxGeometry relative="1" as="geometry" />
        </mxCell>
        <mxCell id="sxVLVylFTuOL7KyfMQJN-19" style="edgeStyle=orthogonalEdgeStyle;rounded=0;orthogonalLoop=1;jettySize=auto;html=1;exitX=1;exitY=0.5;exitDx=0;exitDy=0;exitPerimeter=0;entryX=-0.015;entryY=0.59;entryDx=0;entryDy=0;entryPerimeter=0;strokeColor=#DDA15E;labelBackgroundColor=none;fontColor=default;" edge="1" parent="1" source="VZkVSs7Zi02EqtTKsUPn-9" target="VZkVSs7Zi02EqtTKsUPn-12">
          <mxGeometry relative="1" as="geometry">
            <Array as="points">
              <mxPoint x="445" y="230" />
            </Array>
          </mxGeometry>
        </mxCell>
        <mxCell id="VZkVSs7Zi02EqtTKsUPn-9" value="valSensor&lt;br style=&quot;border-color: var(--border-color);&quot;&gt;&amp;gt; 100" style="strokeWidth=2;html=1;shape=mxgraph.flowchart.decision;whiteSpace=wrap;labelBackgroundColor=none;fillColor=#BC6C25;strokeColor=#DDA15E;fontColor=#FEFAE0;" vertex="1" parent="1">
          <mxGeometry x="325" y="180" width="100" height="100" as="geometry" />
        </mxCell>
        <mxCell id="sxVLVylFTuOL7KyfMQJN-16" style="edgeStyle=orthogonalEdgeStyle;rounded=0;orthogonalLoop=1;jettySize=auto;html=1;exitX=1;exitY=0.5;exitDx=0;exitDy=0;entryX=1;entryY=0.5;entryDx=0;entryDy=0;strokeColor=#DDA15E;labelBackgroundColor=none;fontColor=default;" edge="1" parent="1" source="VZkVSs7Zi02EqtTKsUPn-11" target="sxVLVylFTuOL7KyfMQJN-1">
          <mxGeometry relative="1" as="geometry" />
        </mxCell>
        <mxCell id="VZkVSs7Zi02EqtTKsUPn-11" value="Turn On &lt;br&gt;Blue LED" style="rounded=1;whiteSpace=wrap;html=1;absoluteArcSize=1;arcSize=14;strokeWidth=2;labelBackgroundColor=none;fillColor=#BC6C25;strokeColor=#DDA15E;fontColor=#FEFAE0;" vertex="1" parent="1">
          <mxGeometry x="465" y="85" width="100" height="50" as="geometry" />
        </mxCell>
        <mxCell id="sxVLVylFTuOL7KyfMQJN-20" style="edgeStyle=orthogonalEdgeStyle;rounded=0;orthogonalLoop=1;jettySize=auto;html=1;exitX=0.5;exitY=1;exitDx=0;exitDy=0;entryX=1;entryY=0.5;entryDx=0;entryDy=0;strokeColor=#DDA15E;labelBackgroundColor=none;fontColor=default;" edge="1" parent="1" source="VZkVSs7Zi02EqtTKsUPn-12" target="sxVLVylFTuOL7KyfMQJN-1">
          <mxGeometry relative="1" as="geometry">
            <mxPoint x="515" y="400" as="targetPoint" />
          </mxGeometry>
        </mxCell>
        <mxCell id="VZkVSs7Zi02EqtTKsUPn-12" value="Turn On &lt;br&gt;Green LED" style="rounded=1;whiteSpace=wrap;html=1;absoluteArcSize=1;arcSize=14;strokeWidth=2;labelBackgroundColor=none;fillColor=#BC6C25;strokeColor=#DDA15E;fontColor=#FEFAE0;" vertex="1" parent="1">
          <mxGeometry x="465" y="200" width="100" height="50" as="geometry" />
        </mxCell>
        <mxCell id="sxVLVylFTuOL7KyfMQJN-21" style="edgeStyle=orthogonalEdgeStyle;rounded=0;orthogonalLoop=1;jettySize=auto;html=1;exitX=0.5;exitY=1;exitDx=0;exitDy=0;entryX=0.5;entryY=0;entryDx=0;entryDy=0;strokeColor=#DDA15E;labelBackgroundColor=none;fontColor=default;" edge="1" parent="1" source="VZkVSs7Zi02EqtTKsUPn-13" target="sxVLVylFTuOL7KyfMQJN-1">
          <mxGeometry relative="1" as="geometry" />
        </mxCell>
        <mxCell id="VZkVSs7Zi02EqtTKsUPn-13" value="Turn On&lt;br style=&quot;border-color: var(--border-color);&quot;&gt;Red LED" style="rounded=1;whiteSpace=wrap;html=1;absoluteArcSize=1;arcSize=14;strokeWidth=2;labelBackgroundColor=none;fillColor=#BC6C25;strokeColor=#DDA15E;fontColor=#FEFAE0;" vertex="1" parent="1">
          <mxGeometry x="325" y="310" width="100" height="50" as="geometry" />
        </mxCell>
        <mxCell id="sxVLVylFTuOL7KyfMQJN-36" style="edgeStyle=orthogonalEdgeStyle;rounded=0;orthogonalLoop=1;jettySize=auto;html=1;exitX=0.5;exitY=1;exitDx=0;exitDy=0;strokeColor=#DDA15E;fontColor=#FEFAE0;fillColor=#BC6C25;" edge="1" parent="1" source="sxVLVylFTuOL7KyfMQJN-1" target="sxVLVylFTuOL7KyfMQJN-35">
          <mxGeometry relative="1" as="geometry" />
        </mxCell>
        <mxCell id="sxVLVylFTuOL7KyfMQJN-1" value="Set data json&lt;br style=&quot;border-color: var(--border-color);&quot;&gt;latitude, longitude, valSensor to topic" style="rounded=1;whiteSpace=wrap;html=1;absoluteArcSize=1;arcSize=14;strokeWidth=2;labelBackgroundColor=none;fillColor=#BC6C25;strokeColor=#DDA15E;fontColor=#FEFAE0;" vertex="1" parent="1">
          <mxGeometry x="325" y="380" width="100" height="70" as="geometry" />
        </mxCell>
        <mxCell id="sxVLVylFTuOL7KyfMQJN-24" value="False" style="text;strokeColor=none;align=center;fillColor=none;html=1;verticalAlign=middle;whiteSpace=wrap;rounded=0;fontColor=#FEFAE0;" vertex="1" parent="1">
          <mxGeometry x="70" y="150" width="60" height="30" as="geometry" />
        </mxCell>
        <mxCell id="sxVLVylFTuOL7KyfMQJN-25" value="True" style="text;strokeColor=none;align=center;fillColor=none;html=1;verticalAlign=middle;whiteSpace=wrap;rounded=0;fontColor=#FEFAE0;" vertex="1" parent="1">
          <mxGeometry x="140" y="250" width="60" height="30" as="geometry" />
        </mxCell>
        <mxCell id="sxVLVylFTuOL7KyfMQJN-26" value="False" style="text;strokeColor=none;align=center;fillColor=none;html=1;verticalAlign=middle;whiteSpace=wrap;rounded=0;fontColor=#FEFAE0;" vertex="1" parent="1">
          <mxGeometry x="70" y="340" width="60" height="30" as="geometry" />
        </mxCell>
        <mxCell id="sxVLVylFTuOL7KyfMQJN-27" value="True" style="text;strokeColor=none;align=center;fillColor=none;html=1;verticalAlign=middle;whiteSpace=wrap;rounded=0;fontColor=#FEFAE0;" vertex="1" parent="1">
          <mxGeometry x="140" y="440" width="60" height="30" as="geometry" />
        </mxCell>
        <mxCell id="sxVLVylFTuOL7KyfMQJN-28" value="True" style="text;strokeColor=none;align=center;fillColor=none;html=1;verticalAlign=middle;whiteSpace=wrap;rounded=0;fontColor=#FEFAE0;" vertex="1" parent="1">
          <mxGeometry x="415" y="85" width="60" height="30" as="geometry" />
        </mxCell>
        <mxCell id="sxVLVylFTuOL7KyfMQJN-29" value="True" style="text;strokeColor=none;align=center;fillColor=none;html=1;verticalAlign=middle;whiteSpace=wrap;rounded=0;fontColor=#FEFAE0;" vertex="1" parent="1">
          <mxGeometry x="415" y="200" width="60" height="30" as="geometry" />
        </mxCell>
        <mxCell id="sxVLVylFTuOL7KyfMQJN-30" value="False" style="text;strokeColor=none;align=center;fillColor=none;html=1;verticalAlign=middle;whiteSpace=wrap;rounded=0;fontColor=#FEFAE0;" vertex="1" parent="1">
          <mxGeometry x="375" y="150" width="60" height="30" as="geometry" />
        </mxCell>
        <mxCell id="sxVLVylFTuOL7KyfMQJN-31" value="False" style="text;strokeColor=none;align=center;fillColor=none;html=1;verticalAlign=middle;whiteSpace=wrap;rounded=0;fontColor=#FEFAE0;" vertex="1" parent="1">
          <mxGeometry x="375" y="270" width="60" height="30" as="geometry" />
        </mxCell>
        <mxCell id="sxVLVylFTuOL7KyfMQJN-33" value="Finish" style="strokeWidth=2;html=1;shape=mxgraph.flowchart.terminator;whiteSpace=wrap;labelBackgroundColor=none;fillColor=#BC6C25;strokeColor=#DDA15E;fontColor=#FEFAE0;" vertex="1" parent="1">
          <mxGeometry x="325" y="550" width="100" height="40" as="geometry" />
        </mxCell>
        <mxCell id="sxVLVylFTuOL7KyfMQJN-37" style="edgeStyle=orthogonalEdgeStyle;rounded=0;orthogonalLoop=1;jettySize=auto;html=1;exitX=0.5;exitY=1;exitDx=0;exitDy=0;strokeColor=#DDA15E;fontColor=#FEFAE0;fillColor=#BC6C25;" edge="1" parent="1" source="sxVLVylFTuOL7KyfMQJN-35" target="sxVLVylFTuOL7KyfMQJN-33">
          <mxGeometry relative="1" as="geometry" />
        </mxCell>
        <mxCell id="sxVLVylFTuOL7KyfMQJN-35" value="Publish topic to MQTT Broker" style="rounded=1;whiteSpace=wrap;html=1;absoluteArcSize=1;arcSize=14;strokeWidth=2;labelBackgroundColor=none;fillColor=#BC6C25;strokeColor=#DDA15E;fontColor=#FEFAE0;" vertex="1" parent="1">
          <mxGeometry x="325" y="480" width="100" height="50" as="geometry" />
        </mxCell>
      </root>
    </mxGraphModel>
  </diagram>
  <diagram id="JGb6uOhJwXf6gfVOyjnD" name="Apps">
    <mxGraphModel grid="1" page="1" gridSize="10" guides="1" tooltips="1" connect="1" arrows="1" fold="1" pageScale="1" pageWidth="1169" pageHeight="827" background="#000000" math="0" shadow="0">
      <root>
        <mxCell id="0" />
        <mxCell id="1" parent="0" />
        <mxCell id="8txGZuUWFU8uxqYLpjjY-6" style="edgeStyle=orthogonalEdgeStyle;rounded=0;orthogonalLoop=1;jettySize=auto;html=1;exitX=0.5;exitY=1;exitDx=0;exitDy=0;exitPerimeter=0;entryX=0.5;entryY=0;entryDx=0;entryDy=0;strokeColor=#028090;fontColor=default;fillColor=#F45B69;labelBackgroundColor=none;" edge="1" parent="1" source="tQdx3iBzZKnK0-Rr8dJu-1" target="Vfe-OJ7UgO-xZPpK3d8t-2">
          <mxGeometry relative="1" as="geometry" />
        </mxCell>
        <mxCell id="tQdx3iBzZKnK0-Rr8dJu-1" value="Start" style="strokeWidth=2;html=1;shape=mxgraph.flowchart.terminator;whiteSpace=wrap;labelBackgroundColor=none;fillColor=#F45B69;strokeColor=#028090;fontColor=#E4FDE1;" vertex="1" parent="1">
          <mxGeometry x="100" y="30" width="100" height="40" as="geometry" />
        </mxCell>
        <mxCell id="8txGZuUWFU8uxqYLpjjY-8" style="edgeStyle=orthogonalEdgeStyle;rounded=0;orthogonalLoop=1;jettySize=auto;html=1;exitX=0.5;exitY=1;exitDx=0;exitDy=0;entryX=0.5;entryY=0;entryDx=0;entryDy=0;strokeColor=#028090;fontColor=default;fillColor=#F45B69;labelBackgroundColor=none;" edge="1" parent="1" source="Vfe-OJ7UgO-xZPpK3d8t-1" target="Us1GftTXBuz-uhtBiy-c-1">
          <mxGeometry relative="1" as="geometry" />
        </mxCell>
        <mxCell id="Vfe-OJ7UgO-xZPpK3d8t-1" value="Subscribe Topic" style="rounded=1;whiteSpace=wrap;html=1;absoluteArcSize=1;arcSize=14;strokeWidth=2;labelBackgroundColor=none;fillColor=#F45B69;strokeColor=#028090;fontColor=#E4FDE1;" vertex="1" parent="1">
          <mxGeometry x="100" y="180" width="100" height="50" as="geometry" />
        </mxCell>
        <mxCell id="8txGZuUWFU8uxqYLpjjY-7" style="edgeStyle=orthogonalEdgeStyle;rounded=0;orthogonalLoop=1;jettySize=auto;html=1;exitX=0.5;exitY=1;exitDx=0;exitDy=0;entryX=0.5;entryY=0;entryDx=0;entryDy=0;strokeColor=#028090;fontColor=default;fillColor=#F45B69;labelBackgroundColor=none;" edge="1" parent="1" source="Vfe-OJ7UgO-xZPpK3d8t-2" target="Vfe-OJ7UgO-xZPpK3d8t-1">
          <mxGeometry relative="1" as="geometry" />
        </mxCell>
        <mxCell id="Vfe-OJ7UgO-xZPpK3d8t-2" value="Connect MQTT Broker" style="rounded=1;whiteSpace=wrap;html=1;absoluteArcSize=1;arcSize=14;strokeWidth=2;labelBackgroundColor=none;fillColor=#F45B69;strokeColor=#028090;fontColor=#E4FDE1;" vertex="1" parent="1">
          <mxGeometry x="100" y="100" width="100" height="50" as="geometry" />
        </mxCell>
        <mxCell id="8txGZuUWFU8uxqYLpjjY-9" style="edgeStyle=orthogonalEdgeStyle;rounded=0;orthogonalLoop=1;jettySize=auto;html=1;exitX=0.5;exitY=1;exitDx=0;exitDy=0;entryX=0.5;entryY=0;entryDx=0;entryDy=0;entryPerimeter=0;strokeColor=#028090;fontColor=default;fillColor=#F45B69;labelBackgroundColor=none;" edge="1" parent="1" source="Us1GftTXBuz-uhtBiy-c-1" target="8txGZuUWFU8uxqYLpjjY-1">
          <mxGeometry relative="1" as="geometry" />
        </mxCell>
        <mxCell id="Us1GftTXBuz-uhtBiy-c-1" value="Parsing data json latutide, longitude, valSensor from Topic" style="rounded=1;whiteSpace=wrap;html=1;absoluteArcSize=1;arcSize=14;strokeWidth=2;labelBackgroundColor=none;fillColor=#F45B69;strokeColor=#028090;fontColor=#E4FDE1;" vertex="1" parent="1">
          <mxGeometry x="100" y="260" width="100" height="70" as="geometry" />
        </mxCell>
        <mxCell id="HY0RySCs6SXRjzlECQcF-5" style="edgeStyle=orthogonalEdgeStyle;rounded=0;orthogonalLoop=1;jettySize=auto;html=1;exitX=0.5;exitY=1;exitDx=0;exitDy=0;strokeColor=#028090;fontColor=#E4FDE1;fillColor=#F45B69;" edge="1" parent="1" source="Us1GftTXBuz-uhtBiy-c-2" target="8txGZuUWFU8uxqYLpjjY-17">
          <mxGeometry relative="1" as="geometry" />
        </mxCell>
        <mxCell id="Us1GftTXBuz-uhtBiy-c-2" value="Show Google Maps lokasi bak sampah" style="rounded=1;whiteSpace=wrap;html=1;absoluteArcSize=1;arcSize=14;strokeWidth=2;labelBackgroundColor=none;fillColor=#F45B69;strokeColor=#028090;fontColor=#E4FDE1;" vertex="1" parent="1">
          <mxGeometry x="290" y="370" width="100" height="50" as="geometry" />
        </mxCell>
        <mxCell id="8txGZuUWFU8uxqYLpjjY-10" style="edgeStyle=orthogonalEdgeStyle;rounded=0;orthogonalLoop=1;jettySize=auto;html=1;exitX=1;exitY=0.5;exitDx=0;exitDy=0;exitPerimeter=0;entryX=0;entryY=0.5;entryDx=0;entryDy=0;strokeColor=#028090;fontColor=default;fillColor=#F45B69;labelBackgroundColor=none;" edge="1" parent="1" source="8txGZuUWFU8uxqYLpjjY-1" target="8txGZuUWFU8uxqYLpjjY-3">
          <mxGeometry relative="1" as="geometry" />
        </mxCell>
        <mxCell id="8txGZuUWFU8uxqYLpjjY-11" style="edgeStyle=orthogonalEdgeStyle;rounded=0;orthogonalLoop=1;jettySize=auto;html=1;exitX=0.5;exitY=1;exitDx=0;exitDy=0;exitPerimeter=0;entryX=0.5;entryY=0;entryDx=0;entryDy=0;entryPerimeter=0;strokeColor=#028090;fontColor=default;fillColor=#F45B69;labelBackgroundColor=none;" edge="1" parent="1" source="8txGZuUWFU8uxqYLpjjY-1" target="8txGZuUWFU8uxqYLpjjY-2">
          <mxGeometry relative="1" as="geometry" />
        </mxCell>
        <mxCell id="8txGZuUWFU8uxqYLpjjY-1" value="valSensor &lt;br&gt;&amp;gt; 250" style="strokeWidth=2;html=1;shape=mxgraph.flowchart.decision;whiteSpace=wrap;labelBackgroundColor=none;fillColor=#F45B69;strokeColor=#028090;fontColor=#E4FDE1;" vertex="1" parent="1">
          <mxGeometry x="290" y="60" width="100" height="100" as="geometry" />
        </mxCell>
        <mxCell id="8txGZuUWFU8uxqYLpjjY-12" style="edgeStyle=orthogonalEdgeStyle;rounded=0;orthogonalLoop=1;jettySize=auto;html=1;exitX=1;exitY=0.5;exitDx=0;exitDy=0;exitPerimeter=0;entryX=0;entryY=0.5;entryDx=0;entryDy=0;strokeColor=#028090;fontColor=default;fillColor=#F45B69;labelBackgroundColor=none;" edge="1" parent="1" source="8txGZuUWFU8uxqYLpjjY-2" target="8txGZuUWFU8uxqYLpjjY-4">
          <mxGeometry relative="1" as="geometry" />
        </mxCell>
        <mxCell id="8txGZuUWFU8uxqYLpjjY-13" style="edgeStyle=orthogonalEdgeStyle;rounded=0;orthogonalLoop=1;jettySize=auto;html=1;exitX=0.5;exitY=1;exitDx=0;exitDy=0;exitPerimeter=0;entryX=0.5;entryY=0;entryDx=0;entryDy=0;strokeColor=#028090;fontColor=default;fillColor=#F45B69;labelBackgroundColor=none;" edge="1" parent="1" source="8txGZuUWFU8uxqYLpjjY-2" target="8txGZuUWFU8uxqYLpjjY-5">
          <mxGeometry relative="1" as="geometry" />
        </mxCell>
        <mxCell id="8txGZuUWFU8uxqYLpjjY-2" value="valSensor&lt;br style=&quot;border-color: var(--border-color);&quot;&gt;&amp;gt; 100" style="strokeWidth=2;html=1;shape=mxgraph.flowchart.decision;whiteSpace=wrap;labelBackgroundColor=none;fillColor=#F45B69;strokeColor=#028090;fontColor=#E4FDE1;" vertex="1" parent="1">
          <mxGeometry x="290" y="180" width="100" height="100" as="geometry" />
        </mxCell>
        <mxCell id="8txGZuUWFU8uxqYLpjjY-16" style="edgeStyle=orthogonalEdgeStyle;rounded=0;orthogonalLoop=1;jettySize=auto;html=1;exitX=1;exitY=0.5;exitDx=0;exitDy=0;entryX=1;entryY=0.5;entryDx=0;entryDy=0;strokeColor=#028090;fontColor=default;fillColor=#F45B69;labelBackgroundColor=none;" edge="1" parent="1" source="8txGZuUWFU8uxqYLpjjY-3" target="Us1GftTXBuz-uhtBiy-c-2">
          <mxGeometry relative="1" as="geometry" />
        </mxCell>
        <mxCell id="8txGZuUWFU8uxqYLpjjY-3" value="Show Message &quot;Bak Sampah Masih Kosong&quot;" style="rounded=1;whiteSpace=wrap;html=1;absoluteArcSize=1;arcSize=14;strokeWidth=2;labelBackgroundColor=none;fillColor=#F45B69;strokeColor=#028090;fontColor=#E4FDE1;" vertex="1" parent="1">
          <mxGeometry x="430" y="85" width="100" height="50" as="geometry" />
        </mxCell>
        <mxCell id="8txGZuUWFU8uxqYLpjjY-15" style="edgeStyle=orthogonalEdgeStyle;rounded=0;orthogonalLoop=1;jettySize=auto;html=1;exitX=0.5;exitY=1;exitDx=0;exitDy=0;entryX=1;entryY=0.5;entryDx=0;entryDy=0;strokeColor=#028090;fontColor=default;fillColor=#F45B69;labelBackgroundColor=none;" edge="1" parent="1" source="8txGZuUWFU8uxqYLpjjY-4" target="Us1GftTXBuz-uhtBiy-c-2">
          <mxGeometry relative="1" as="geometry" />
        </mxCell>
        <mxCell id="8txGZuUWFU8uxqYLpjjY-4" value="Show Message &quot;Bak Sampah Belum Penuh&quot;" style="rounded=1;whiteSpace=wrap;html=1;absoluteArcSize=1;arcSize=14;strokeWidth=2;labelBackgroundColor=none;fillColor=#F45B69;strokeColor=#028090;fontColor=#E4FDE1;" vertex="1" parent="1">
          <mxGeometry x="430" y="205" width="100" height="50" as="geometry" />
        </mxCell>
        <mxCell id="8txGZuUWFU8uxqYLpjjY-14" style="edgeStyle=orthogonalEdgeStyle;rounded=0;orthogonalLoop=1;jettySize=auto;html=1;exitX=0.5;exitY=1;exitDx=0;exitDy=0;entryX=0.5;entryY=0;entryDx=0;entryDy=0;strokeColor=#028090;fontColor=default;fillColor=#F45B69;labelBackgroundColor=none;" edge="1" parent="1" source="8txGZuUWFU8uxqYLpjjY-5" target="Us1GftTXBuz-uhtBiy-c-2">
          <mxGeometry relative="1" as="geometry" />
        </mxCell>
        <mxCell id="8txGZuUWFU8uxqYLpjjY-5" value="Show Message &quot;Bak Sampah Sudah Penuh&quot;" style="rounded=1;whiteSpace=wrap;html=1;absoluteArcSize=1;arcSize=14;strokeWidth=2;labelBackgroundColor=none;fillColor=#F45B69;strokeColor=#028090;fontColor=#E4FDE1;" vertex="1" parent="1">
          <mxGeometry x="290" y="300" width="100" height="50" as="geometry" />
        </mxCell>
        <mxCell id="8txGZuUWFU8uxqYLpjjY-17" value="Finish" style="strokeWidth=2;html=1;shape=mxgraph.flowchart.terminator;whiteSpace=wrap;labelBackgroundColor=none;fillColor=#F45B69;strokeColor=#028090;fontColor=#E4FDE1;" vertex="1" parent="1">
          <mxGeometry x="290" y="440" width="100" height="40" as="geometry" />
        </mxCell>
        <mxCell id="HY0RySCs6SXRjzlECQcF-1" value="False" style="text;strokeColor=none;align=center;fillColor=none;html=1;verticalAlign=middle;whiteSpace=wrap;rounded=0;fontColor=#FEFAE0;" vertex="1" parent="1">
          <mxGeometry x="340" y="150" width="60" height="30" as="geometry" />
        </mxCell>
        <mxCell id="HY0RySCs6SXRjzlECQcF-2" value="True" style="text;strokeColor=none;align=center;fillColor=none;html=1;verticalAlign=middle;whiteSpace=wrap;rounded=0;fontColor=#FEFAE0;" vertex="1" parent="1">
          <mxGeometry x="370" y="190" width="60" height="30" as="geometry" />
        </mxCell>
        <mxCell id="HY0RySCs6SXRjzlECQcF-3" value="False" style="text;strokeColor=none;align=center;fillColor=none;html=1;verticalAlign=middle;whiteSpace=wrap;rounded=0;fontColor=#FEFAE0;" vertex="1" parent="1">
          <mxGeometry x="350" y="270" width="60" height="30" as="geometry" />
        </mxCell>
        <mxCell id="HY0RySCs6SXRjzlECQcF-4" value="True" style="text;strokeColor=none;align=center;fillColor=none;html=1;verticalAlign=middle;whiteSpace=wrap;rounded=0;fontColor=#FEFAE0;" vertex="1" parent="1">
          <mxGeometry x="380" y="70" width="60" height="30" as="geometry" />
        </mxCell>
      </root>
    </mxGraphModel>
  </diagram>
</mxfile>
